<?xml version="1.0" standalone="no"?>
<!DOCTYPE svg PUBLIC "-//W3C//DTD SVG 20010904//EN"
 "http://www.w3.org/TR/2001/REC-SVG-20010904/DTD/svg10.dtd">
<svg version="1.0" xmlns="http://www.w3.org/2000/svg"
 width="700.000000pt" height="700.000000pt" viewBox="0 0 700.000000 700.000000"
 preserveAspectRatio="xMidYMid meet">
<metadata>
Created by potrace 1.14, written by Peter Selinger 2001-2017
</metadata>
<g transform="translate(0.000000,700.000000) scale(0.100000,-0.100000)"
fill="#000000" stroke="none">
<path d="M1937 6124 c-1 -1 -29 -5 -61 -9 -128 -14 -316 -91 -426 -174 -185
-139 -319 -342 -371 -561 -22 -94 -22 -103 -23 -912 -1 -450 1 -818 3 -818 2
0 83 78 180 174 97 96 217 214 266 262 67 65 858 840 896 878 4 4 235 7 516 7
l509 0 578 578 577 577 -1321 0 c-726 0 -1321 -1 -1323 -2z"/>
<path d="M6746 6123 c-1 -2 -47 -5 -102 -8 -54 -3 -110 -8 -124 -10 -14 -2
-47 -7 -75 -10 -47 -6 -251 -39 -305 -50 -392 -74 -889 -269 -1260 -493 -137
-82 -434 -290 -460 -322 -3 -3 -18 -16 -35 -29 -39 -29 -189 -167 -279 -255
-39 -38 -242 -236 -451 -441 -209 -206 -426 -418 -481 -472 -56 -54 -271 -264
-479 -468 -207 -203 -429 -421 -493 -484 -64 -62 -279 -272 -477 -467 -198
-194 -423 -414 -500 -489 -77 -76 -304 -298 -505 -495 -201 -197 -446 -436
-544 -532 l-179 -174 84 2 c97 3 261 13 304 18 17 2 62 7 100 10 39 4 77 9 85
11 8 2 35 7 60 10 58 8 234 43 285 57 22 5 48 12 57 13 114 22 385 112 578
192 135 56 373 175 466 232 27 17 63 38 79 47 68 38 257 169 360 249 136 106
206 167 364 320 141 136 132 127 652 636 211 207 434 425 495 485 61 60 284
278 495 485 211 207 429 420 484 474 55 53 273 267 485 475 212 208 423 415
470 460 81 78 340 333 824 808 119 116 216 214 216 216 0 4 -190 3 -194 -1z"/>
<path d="M5700 3218 c-102 -99 -363 -354 -580 -568 -217 -213 -437 -429 -489
-479 l-94 -91 -508 0 -509 0 -574 -574 c-395 -394 -569 -575 -558 -578 33 -7
2628 -1 2677 6 433 66 765 405 822 841 6 48 8 1613 2 1619 -2 2 -87 -77 -189
-176z"/>
</g>
</svg>
