<svg width="1440" height="592" viewBox="0 0 1440 592" fill="none" xmlns="http://www.w3.org/2000/svg">
<g opacity="0.5">
  <path d="M644.256 1.125L357.582 574.225" stroke="#04D1FF" stroke-width="0.5" stroke-linecap="round" stroke-linejoin="round"/>
  <path d="M421.93 1.12476L-3.01074 213.78" stroke="#04D1FF" stroke-width="0.5" stroke-linecap="round" stroke-linejoin="round"/>
  <path d="M347.819 1.12476L-3.01074 141.593" stroke="#04D1FF" stroke-width="0.5" stroke-linecap="round" stroke-linejoin="round"/>
  <path d="M273.715 1.125L-3.0127 93.4608" stroke="#04D1FF" stroke-width="0.5" stroke-linecap="round" stroke-linejoin="round"/>
  <path d="M496.042 1.12476L-3.01172 334.067" stroke="#04D1FF" stroke-width="0.5" stroke-linecap="round" stroke-linejoin="round"/>
  <path d="M199.605 1.125L-3.0127 59.0757" stroke="#04D1FF" stroke-width="0.5" stroke-linecap="round" stroke-linejoin="round"/>
  <path d="M51.3835 1.125L-3.0127 13.2275" stroke="#04D1FF" stroke-width="0.5" stroke-linecap="round" stroke-linejoin="round"/>
  <path d="M125.494 1.125L-3.0127 33.2847" stroke="#04D1FF" stroke-width="0.5" stroke-linecap="round" stroke-linejoin="round"/>
  <path d="M1237.13 1.125L1440 59.1807" stroke="#04D1FF" stroke-width="0.5" stroke-linecap="round" stroke-linejoin="round"/>
  <path d="M718.367 1.125L717.871 574.225" stroke="#04D1FF" stroke-width="0.5" stroke-linecap="round" stroke-linejoin="round"/>
  <path d="M1311.24 1.125L1440 33.3606" stroke="#04D1FF" stroke-width="0.5" stroke-linecap="round" stroke-linejoin="round"/>
  <path d="M1385.34 1.125L1440 13.2878" stroke="#04D1FF" stroke-width="0.5" stroke-linecap="round" stroke-linejoin="round"/>
  <path d="M1163.02 1.125L1440 93.6016" stroke="#04D1FF" stroke-width="0.5" stroke-linecap="round" stroke-linejoin="round"/>
  <path d="M1088.91 1.125L1440 141.787" stroke="#04D1FF" stroke-width="0.5" stroke-linecap="round" stroke-linejoin="round"/>
  <path d="M940.693 1.125L1440 334.622" stroke="#04D1FF" stroke-width="0.5" stroke-linecap="round" stroke-linejoin="round"/>
  <path d="M1014.8 1.125L1440 214.093" stroke="#04D1FF" stroke-width="0.5" stroke-linecap="round" stroke-linejoin="round"/>
  <path d="M792.479 1.125L1078.16 574.225" stroke="#04D1FF" stroke-width="0.5" stroke-linecap="round" stroke-linejoin="round"/>
  <path d="M570.145 1.125L-2.70508 574.225" stroke="#04D1FF" stroke-width="0.5" stroke-linecap="round" stroke-linejoin="round"/>
  <path d="M866.582 1.125L1438.45 574.225" stroke="#04D1FF" stroke-width="0.5" stroke-linecap="round" stroke-linejoin="round"/>
  <path d="M1438.45 574.227H-2.70312" stroke="#04D1FF" stroke-width="0.5" stroke-linecap="round" stroke-linejoin="round"/>
  <path d="M1440 79.3372H-3.01074" stroke="#04D1FF" stroke-width="0.5" stroke-linecap="round" stroke-linejoin="round"/>
  <path d="M1440 26.888H-3.01074" stroke="#04D1FF" stroke-width="0.5" stroke-linecap="round" stroke-linejoin="round"/>
  <path d="M1440 37.5816H-3.01074" stroke="#04D1FF" stroke-width="0.5" stroke-linecap="round" stroke-linejoin="round"/>
  <path d="M1440 49.6764H-3.01074" stroke="#04D1FF" stroke-width="0.5" stroke-linecap="round" stroke-linejoin="round"/>
  <path d="M1440 8.82406H-3.01074" stroke="#04D1FF" stroke-width="0.5" stroke-linecap="round" stroke-linejoin="round"/>
  <path d="M1440 17.3629H-3.01074" stroke="#04D1FF" stroke-width="0.5" stroke-linecap="round" stroke-linejoin="round"/>
  <path d="M1440 422.512H-3.01074" stroke="#04D1FF" stroke-width="0.5" stroke-linecap="round" stroke-linejoin="round"/>
  <path d="M1440 97.7865H-3.01074" stroke="#04D1FF" stroke-width="0.5" stroke-linecap="round" stroke-linejoin="round"/>
  <path d="M1440 63.4708H-3.01074" stroke="#04D1FF" stroke-width="0.5" stroke-linecap="round" stroke-linejoin="round"/>
  <path d="M1440 1.12508H-3.01074" stroke="#04D1FF" stroke-width="0.5" stroke-linecap="round" stroke-linejoin="round"/>
  <path d="M1440 119.504H-3.01074" stroke="#04D1FF" stroke-width="0.5" stroke-linecap="round" stroke-linejoin="round"/>
  <path d="M1440 145.448H-3.01074" stroke="#04D1FF" stroke-width="0.5" stroke-linecap="round" stroke-linejoin="round"/>
  <path d="M1440 331.821H-3.01074" stroke="#04D1FF" stroke-width="0.5" stroke-linecap="round" stroke-linejoin="round"/>
  <path d="M1440 176.985H-3.01074" stroke="#04D1FF" stroke-width="0.5" stroke-linecap="round" stroke-linejoin="round"/>
  <path d="M1440 216.137H-3.01074" stroke="#04D1FF" stroke-width="0.5" stroke-linecap="round" stroke-linejoin="round"/>
  <path d="M1440 266.038H-3.01074" stroke="#04D1FF" stroke-width="0.5" stroke-linecap="round" stroke-linejoin="round"/>
<rect width="1440" height="205" fill="url(#paint0_linear_446_5849)"/>
<rect x="1440" y="575" width="1440" height="205" transform="rotate(-180 1440 575)" fill="url(#paint1_linear_446_5849)"/>
<rect x="1438" width="592" height="117" transform="rotate(90 1438 0)" fill="url(#paint2_linear_446_5849)"/>
<rect width="592" height="117" transform="matrix(-1.19249e-08 1 1 1.19249e-08 0 0)" fill="url(#paint3_linear_446_5849)"/>
</g>
<defs>
<linearGradient id="paint0_linear_446_5849" x1="133.185" y1="-1.56985e-06" x2="133.185" y2="205" gradientUnits="userSpaceOnUse">
<stop stop-color="#05020D"/>
<stop offset="1" stop-color="#05020D" stop-opacity="0"/>
</linearGradient>
<linearGradient id="paint1_linear_446_5849" x1="1573.18" y1="575" x2="1573.18" y2="780" gradientUnits="userSpaceOnUse">
<stop stop-color="#05020D"/>
<stop offset="1" stop-color="#05020D" stop-opacity="0"/>
</linearGradient>
<linearGradient id="paint2_linear_446_5849" x1="1492.75" y1="-8.95963e-07" x2="1492.75" y2="117" gradientUnits="userSpaceOnUse">
<stop stop-color="#05020D"/>
<stop offset="1" stop-color="#05020D" stop-opacity="0"/>
</linearGradient>
<linearGradient id="paint3_linear_446_5849" x1="54.7538" y1="-8.95963e-07" x2="54.7538" y2="117" gradientUnits="userSpaceOnUse">
<stop stop-color="#05020D"/>
<stop offset="1" stop-color="#05020D" stop-opacity="0"/>
</linearGradient>
</defs>
</svg>
